<?xml version="1.0" encoding="iso-8859-1"?>
<!-- Generator: Adobe Illustrator 16.0.0, SVG Export Plug-In . SVG Version: 6.00 Build 0)  -->
<!DOCTYPE svg PUBLIC "-//W3C//DTD SVG 1.1//EN" "http://www.w3.org/Graphics/SVG/1.1/DTD/svg11.dtd">
<svg version="1.1" id="Capa_1" xmlns="http://www.w3.org/2000/svg" xmlns:xlink="http://www.w3.org/1999/xlink" x="0px" y="0px"
	 width="46.416px" height="46.417px" viewBox="0 0 46.416 46.417" style="enable-background:new 0 0 46.416 46.417;"
	 xml:space="preserve">
<g>
	<g>
		<path d="M5.739,36.142c4.242,2.753,13.104,2.654,16.857-0.847c0.807-0.752,0.215-3.896,0.215-4.835c0-2.911,0-5.822,0-8.733
			c0-2.494-8.185-1.216-9.826-1.216c-0.078,0-0.161,0.012-0.246,0.034c-0.133,0.034-0.399,0.104-0.589,0.175
			c-0.129,0.048-0.239,0.11-0.314,0.186c-1.045,1.044-0.963,3.798-0.598,5.16c0.1,0.373,0.62,0.728,1.01,0.728
			c3.352,0,3.941,4.557,0.669,4.453c-6.212-0.198-5.484-10.679-3.499-14.3c2.177-3.972,6.106-1.13,9.189-1.147
			c0.552-0.003,1.013-0.117,1.04-0.107c0.017,0.006,0.033,0.011,0.049,0.016c0.037,0.011,0.073,0.014,0.107,0.011
			c0.06-0.005,0.058-0.038-0.004-0.05s-0.037-0.042,0.055-0.068c0.055-0.016,0.109-0.032,0.163-0.056
			c0.974-0.42,2.169-4.813,1.603-5.482c-1.292-1.524-4.56-1.491-6.331-1.646C9.529,7.912,4.172,9.844,1.655,15.299
			C-1.282,21.666-0.538,32.07,5.739,36.142z M2.356,20.625c0.042-0.551,0.418-1.304,0.817-1.686
			c0.065-0.062,0.131-0.125,0.196-0.187c0.399-0.381,0.779-0.91,0.854-1.18c0.074-0.271-0.168-0.167-0.557,0.226
			c-0.146,0.148-0.293,0.296-0.439,0.444c-0.389,0.393-0.699,0.67-0.694,0.621c0.004-0.03,0.007-0.061,0.011-0.091
			c0.134-0.979,0.363-1.914,0.685-2.793c0.19-0.519,0.696-1.242,1.084-1.637c1.069-1.089,2.136-2.171,3.197-3.246
			c0.389-0.393,1.11-0.9,1.635-1.074c0.433-0.143,0.887-0.259,1.363-0.344c0.367-0.065,0.739-0.113,1.116-0.146
			c0.55-0.048,0.825-0.046,0.612-0.032s-0.584,0.232-0.83,0.479c-0.246,0.248-0.191,0.373,0.125,0.297
			c0.316-0.077,0.727-0.277,0.911-0.464c0.185-0.186,0.783-0.346,1.335-0.323c0.34,0.014,0.679,0.037,1.018,0.067
			c0.551,0.051,0.948,0.158,0.893,0.211c-0.055,0.055,0.291,0.101,0.77,0.117c0.479,0.019,1.036,0.075,1.246,0.117
			c0.127,0.026,0.253,0.053,0.378,0.081c2.04,0.456,1.636,0.999,1.19,2.879c-0.496,2.092,0.429,1.536-1.639,1.116
			c-1.31-0.267-2.764-0.32-4.095-0.198c-1.574,0.145-3.409,0.463-4.631,1.575c-3.514,3.197-4.462,12.641-0.211,15.699
			c2.035,1.464,5.348,1.977,7.148,0.436c0.42-0.358,0.975-1.062,1.377-1.44c0.075-0.071,0.15-0.143,0.226-0.214
			c0.401-0.379,0.727-0.699,0.727-0.718c0-0.018-0.319,0.281-0.715,0.667c-0.077,0.076-0.154,0.151-0.232,0.228
			c-0.395,0.386-0.538,0.423-0.399,0.048c0.08-0.215,0.144-0.446,0.191-0.696c0.202-1.088,0.024-3.121-1.233-3.518
			c-0.269-0.084-0.575-0.114-0.882-0.136c-0.492-0.031-0.818-0.143-0.734-0.222c0.086-0.079,0.154-0.225,0.154-0.325
			c0-0.1-0.131-0.05-0.293,0.112c-0.161,0.162-0.561,0.233-0.727-0.017c-0.086-0.13-0.134-0.297-0.134-0.52
			c0-0.235-0.032-0.572-0.064-0.949c-0.045-0.523,0.218-1.236,0.561-1.591c0.343-0.353,1.069-0.639,1.621-0.639
			c0.486,0,0.973,0,1.459,0c0.553,0,0.923,0.077,0.828,0.172c-0.096,0.095-0.039,0.173,0.127,0.173s0.384-0.078,0.486-0.173
			c0.102-0.095,0.21-0.173,0.242-0.173c0.019,0,0.037,0,0.057,0c0.374,0,0.688-0.01,0.954-0.02c0.527-0.017,0.871,0.104,0.771,0.196
			c-0.1,0.093-0.016,0.169,0.188,0.169c0.204,0,0.454,0.336,0.466,0.76c0.006,0.214,0.007,0.469,0.007,0.769
			c0,2.678,0,5.355,0,8.034c0,1.047,0,2.095,0,3.143c0,1.942-5.899,2.039-7.385,2.016c-4.065-0.063-6.812-1.63-8.573-4.022
			C4.588,32.26,4.4,31.834,4.451,31.789c0.05-0.047-0.013-0.339-0.122-0.657s-0.235-0.53-0.295-0.471
			c-0.036,0.037-0.072,0.073-0.108,0.107c-0.018,0.02-0.036,0.039-0.054,0.058c-0.029,0.032-0.245-0.339-0.438-0.848
			c-0.191-0.508-0.196-1.053-0.045-1.202c0.151-0.15,0.268-0.303,0.262-0.341c-0.006-0.038-0.102,0.019-0.214,0.123
			c-0.112,0.105-0.24,0.225-0.284,0.269c-0.043,0.044-0.149-0.15-0.229-0.437c-0.079-0.286,0.022-0.675,0.214-0.864
			c0.192-0.19,0.319-0.62,0.293-0.963c-0.026-0.342-0.225-0.431-0.451-0.197c-0.227,0.233-0.471,0.07-0.529-0.364
			s0.133-1.018,0.406-1.3c0.273-0.282,0.496-0.958,0.518-1.509c0.006-0.134,0.012-0.266,0.018-0.396
			c0.029-0.551-0.198-0.733-0.529-0.407c-0.33,0.327-0.602,0.145-0.584-0.408C2.296,21.529,2.321,21.077,2.356,20.625z"/>
		<path d="M31.762,13.534c-0.268-5.011-8.085-4.296-8.335,0.38c-0.116,2.165,1.331,3.302,3.051,3.53
			c0.547,0.071,1.114,0.055,1.262,0.07c0.087,0.011,0.176,0.017,0.268,0.017c0.023,0,0.049-0.003,0.071-0.006
			c0.04-0.007,0.037-0.029-0.003-0.06c-0.041-0.03,0.372-0.115,0.893-0.302c1.479-0.532,2.698-1.717,2.794-3.493
			c0.001-0.014-0.003-0.024-0.008-0.034c-0.009-0.018-0.008-0.048,0-0.066C31.759,13.557,31.762,13.546,31.762,13.534z
			 M25.431,14.146c-0.021-0.087-0.04-0.174-0.054-0.261c-0.034-0.21-0.035-0.424-0.01-0.637c0.044-0.352,0.444-0.918,0.804-1.285
			c0.358-0.367,0.457-0.589,0.24-0.455c-0.216,0.134-0.101-0.072,0.374-0.258c0.274-0.107,0.579-0.146,0.905-0.093
			c0.134,0.021,0.259,0.058,0.378,0.104c0.202,0.079,0.039,0.493-0.349,0.887c-0.506,0.515-1.013,1.028-1.519,1.543
			C25.816,14.085,25.468,14.291,25.431,14.146z M29.628,14.96c-0.315,0.917-1.003,1.653-2.125,1.468
			c-0.126-0.021-0.245-0.054-0.359-0.097c-0.192-0.073-0.326-0.17-0.313-0.181c0.013-0.012-0.052-0.168-0.122-0.359
			c-0.068-0.191-0.178-0.281-0.269-0.192c-0.09,0.088-0.392-0.069-0.591-0.41c-0.199-0.34-0.02-0.9,0.324-1.216
			c0.344-0.314,0.795-0.995,1.163-1.406c0.142-0.159,0.3-0.304,0.471-0.432c0.441-0.331,1.255-0.194,1.538,0.28
			c0.11,0.187,0.203,0.387,0.275,0.594C29.804,13.529,29.807,14.437,29.628,14.96z"/>
		<path d="M45.387,32.008c-1.45-0.185-3.438-0.5-3.438-2.293c0-0.897-0.355-5.938,0.984-5.938c0.842,0,1.994,0.179,2.664-0.496
			c0.941-0.951,0.49-2.595,0.49-3.858c0-1.275-0.688-1.458-1.612-1.456c-0.553,0.001-1.452-0.078-1.892-0.413
			c-1.572-1.203,0.364-3.397-1.013-4.632c-0.675-0.604-3.186-0.118-3.977-0.118c-3.206,0-3.271,0.613-3.271,3.77
			c0,1.63-1.014,1.85-1.958,2.359c-0.485,0.264-0.817,0.231-0.958-0.178c-0.102-0.298-0.25-0.514-0.463-0.604
			c-1.328-0.561-4.001-0.183-5.441-0.055c-1.256,0.111-1.816,0.625-1.816,1.81c0,2.812,0,5.627,0,8.44
			c0,2.458-0.722,6.239,0.208,8.545c0.436,1.081,5.635,0.315,6.757-0.083c1.619-0.573,0.757-4.846,0.757-6.187
			c0-2.323,0-4.646,0-6.97c0-0.052,0.002-0.112,0.006-0.182c0.006-0.1,0.332,0.144,0.816,0.408c1.124,0.615,2.094,0.527,2.094,2.836
			c0,3.121-0.459,6.354,1.396,9.035c1.813,2.622,7.049,2.332,9.59,1.334C46.7,36.538,46.84,32.195,45.387,32.008z M27.877,36.384
			c-0.203,0-0.389-0.009-0.557-0.024c-0.306-0.03-0.547-0.132-0.547-0.181s-0.031-0.056-0.068-0.018
			c-0.038,0.038-0.312,0.01-0.555-0.165c-0.242-0.174-0.138-0.62,0.133-0.894c0.271-0.272,0.49-0.521,0.49-0.552
			c0-0.032-0.226,0.179-0.504,0.472c-0.277,0.292-0.684,0.123-0.708-0.413c-0.025-0.536,0.282-1.26,0.613-1.613
			c0.331-0.354,0.599-1.088,0.599-1.642c0-0.151,0-0.306,0-0.46c0-0.552-0.259-0.738-0.578-0.417
			c-0.318,0.323-0.578,0.138-0.578-0.416c0-0.772,0-1.547,0-2.32c0-0.553,0.26-1.266,0.578-1.592
			c0.319-0.326,0.578-0.743,0.578-0.932c0-0.188-0.259-0.104-0.578,0.187c-0.318,0.291-0.578,0.08-0.578-0.474
			c0-0.44,0-0.882,0-1.322c0-0.553,0.26-1.246,0.578-1.549c0.319-0.303,0.578-0.599,0.578-0.663c0-0.063-0.26,0.14-0.579,0.451
			c-0.319,0.312-0.577,0.118-0.577-0.435c0-0.676,0-1.353,0-2.028c0-0.104,0.002-0.19,0.004-0.263
			c0.004-0.146,0.368-0.261,0.822-0.261c0.273,0,0.548,0,0.822,0c0.366,0,0.674-0.01,0.932-0.01c0.516,0,0.818,0.239,0.708,0.348
			c-0.11,0.107-0.134,0.194-0.051,0.194s0.207-0.055,0.279-0.124c0.071-0.067,0.276,0.138,0.313,0.497
			c0.02,0.182,0.027,0.397,0.027,0.655c0,3.572,0,7.144,0,10.715C29.476,33.144,30.423,36.384,27.877,36.384z M41.03,36.712
			c-1.355-0.111-2.349-0.6-3.068-1.335c-0.388-0.395-0.537-0.864-0.439-0.96c0.099-0.097,0.145-0.299,0.107-0.454
			s-0.165-0.176-0.293-0.044c-0.13,0.132-0.441-0.16-0.614-0.685c-0.104-0.312-0.188-0.64-0.257-0.976
			c-0.109-0.542,0.095-1.24,0.396-1.551c0.302-0.312,0.548-1.003,0.548-1.546c0-0.542-0.258-0.722-0.574-0.402
			c-0.317,0.32-0.558,0.223-0.529-0.218c0.025-0.44,0.284-1.035,0.576-1.33c0.292-0.294,0.527-0.635,0.527-0.761
			c0-0.078,0-0.155,0-0.229c0-0.023-0.002-0.047-0.004-0.07c-0.003-0.039-0.233,0.172-0.516,0.471
			c-0.282,0.298-0.487,0.092-0.507-0.46c-0.002-0.055-0.005-0.109-0.009-0.163c-0.028-0.552-0.012-1.109,0.123-1.254
			c0.136-0.145,0.129-0.372-0.049-0.449c-0.107-0.047-0.222-0.074-0.341-0.074c-0.019,0-0.039,0-0.057,0
			c-0.031,0-0.229-0.438-0.648-0.797c-0.438-0.374-1.06-0.595-1.94-0.595c-0.503,0-0.55-3.197,0.573-3.472
			c0.533-0.132,1.269-0.518,1.538-0.98c0.084-0.145,0.157-0.286,0.222-0.426c0.108-0.242,0.498-0.732,0.895-1.083
			c0.397-0.353,0.719-0.711,0.719-0.801c0-0.092-0.302,0.126-0.674,0.486s-0.559,0.232-0.512-0.301s0.356-1.279,0.756-1.661
			c0.268-0.256,0.532-0.509,0.789-0.756c0.009-0.009,0.019-0.019,0.029-0.029c0.017-0.016-0.057-0.028-0.16-0.028
			c-0.104,0-0.457,0.259-0.786,0.578c-0.329,0.318-0.595,0.564-0.595,0.55c0-0.016,0.247-0.272,0.551-0.575
			c0.303-0.303,0.294-0.324-0.008-0.035c-0.303,0.29-0.544,0.426-0.545,0.303c-0.001-0.072-0.001-0.146-0.001-0.223
			c0-0.13-0.015-0.24-0.038-0.333c-0.046-0.179,0.3-0.296,0.852-0.296c0.533,0,1.065,0,1.599,0c0.164,0,0.312,0.006,0.439,0.018
			c0.242,0.022,0.352,0.157,0.251,0.254c-0.101,0.098-0.061,0.177,0.09,0.177c0.151,0,0.312-0.035,0.359-0.077
			c0.048-0.043,0.322,0.319,0.29,0.871c-0.022,0.384-0.081,0.861-0.081,1.438c0.001,1.5,0.731,2.086,2.05,2.468
			c0.087,0.031,0.208,0.05,0.385,0.05c2.375,0,1.705,1.453,1.705,3.407c0,0.117,0.02,0.213,0.048,0.288
			c0.061,0.151,0.031,0.207-0.148,0.197c-0.093-0.005-0.201-0.008-0.329-0.008c-0.334,0-0.661-0.019-0.985,0.077
			c-3.228,0.938-2.723,3.322-2.723,6.345c0,0.896-0.285,2.616,0.725,3.167c0.524,0.287,3.482,0.633,3.482,0.983
			C44.22,36.165,44.385,36.987,41.03,36.712z"/>
	</g>
</g>
<g>
</g>
<g>
</g>
<g>
</g>
<g>
</g>
<g>
</g>
<g>
</g>
<g>
</g>
<g>
</g>
<g>
</g>
<g>
</g>
<g>
</g>
<g>
</g>
<g>
</g>
<g>
</g>
<g>
</g>
</svg>
