<?xml version="1.0" encoding="UTF-8"?>
<svg xmlns="http://www.w3.org/2000/svg" xmlns:xlink="http://www.w3.org/1999/xlink" viewBox="0 0 250 250" width="250px" height="250px">
<g id="surface73835803">
<path style=" stroke:none;fill-rule:nonzero;fill:rgb(2.352941%,41.176471%,67.843139%);fill-opacity:1;" d="M 149.335938 15.039062 C 148.808594 15.117188 148.28125 15.273438 147.773438 15.507812 C 143.476562 17.636719 138.59375 23.964844 137.65625 25.214844 C 137.597656 25.292969 137.539062 25.371094 137.5 25.449219 C 132.675781 32.675781 130.097656 41.132812 130 49.941406 C 129.941406 56.542969 131.230469 63.085938 133.847656 69.394531 C 139.941406 84.023438 152.597656 96.132812 167.65625 101.796875 C 168.164062 101.972656 168.652344 102.148438 169.53125 102.460938 C 169.609375 102.5 170.351562 102.734375 170.46875 102.753906 L 171.015625 102.949219 C 171.796875 103.203125 172.597656 103.457031 173.378906 103.613281 C 177.34375 104.414062 181.210938 104.863281 184.84375 104.980469 C 185.46875 104.980469 186.09375 105 186.71875 105 C 214.121094 105 224.746094 85.664062 228.28125 79.21875 C 228.632812 78.59375 228.886719 78.085938 229.121094 77.773438 C 229.121094 77.753906 229.121094 77.753906 229.140625 77.734375 C 230.683594 75.449219 230.097656 72.34375 227.8125 70.78125 C 225.546875 69.238281 222.441406 69.824219 220.878906 72.109375 L 220.859375 72.109375 C 213.554688 82.871094 201.054688 86.132812 183.730469 81.835938 C 182.441406 81.523438 181.035156 81.035156 179.785156 80.566406 C 178.144531 79.980469 176.503906 79.296875 174.980469 78.554688 C 171.953125 77.050781 169.101562 75.253906 166.523438 73.261719 C 151.289062 61.445312 145.332031 36.855469 154.238281 22.65625 C 155.429688 20.761719 155.214844 18.300781 153.710938 16.640625 C 152.578125 15.390625 150.9375 14.824219 149.335938 15.039062 Z M 105.039062 25 C 103.90625 24.980469 102.753906 25.351562 101.816406 26.132812 C 94.257812 32.285156 86.523438 42.363281 86.191406 42.773438 C 86.152344 42.851562 86.113281 42.910156 86.054688 42.988281 C 72.382812 62.890625 71.347656 91.210938 83.4375 115.136719 C 85.332031 118.925781 87.480469 122.539062 89.765625 125.859375 L 90.449219 126.835938 C 92.382812 129.667969 94.550781 132.871094 97.324219 135.371094 C 98.28125 136.464844 99.316406 137.519531 100.332031 138.535156 L 100.820312 139.042969 L 101.230469 139.453125 C 102.265625 140.449219 103.320312 141.464844 104.414062 142.441406 L 104.433594 142.441406 C 104.511719 142.558594 104.628906 142.636719 104.726562 142.734375 C 105.957031 143.828125 107.207031 144.863281 108.867188 146.171875 L 109.316406 146.503906 C 110.605469 147.539062 111.914062 148.515625 113.261719 149.472656 C 113.398438 149.570312 113.535156 149.667969 113.671875 149.765625 C 114.140625 150.078125 114.609375 150.371094 115.078125 150.703125 L 115.546875 151.015625 L 116.09375 151.367188 C 117.089844 152.03125 118.066406 152.636719 119.453125 153.4375 C 120.351562 153.984375 121.308594 154.53125 121.933594 154.84375 C 122.207031 155 122.5 155.15625 123.183594 155.527344 L 124.707031 156.328125 C 124.785156 156.367188 125.136719 156.523438 125.214844 156.5625 C 126.210938 157.070312 127.246094 157.558594 128.28125 158.027344 L 129.863281 158.730469 C 130.898438 159.179688 131.953125 159.609375 133.242188 160.097656 L 133.828125 160.3125 C 133.867188 160.351562 134.355469 160.527344 134.394531 160.546875 C 135.332031 160.878906 136.289062 161.210938 137.246094 161.523438 L 139.433594 162.246094 C 140.527344 162.617188 141.796875 163.046875 143.183594 163.28125 C 150 164.414062 156.621094 165 162.890625 165 C 163.632812 165 164.375 164.980469 165.097656 164.980469 C 220.292969 163.769531 234.648438 116.875 234.785156 116.40625 C 235.46875 114.042969 234.355469 111.523438 232.128906 110.46875 C 229.902344 109.414062 227.246094 110.15625 225.859375 112.1875 C 211.875 132.617188 185.429688 141.25 158.496094 134.140625 C 157.246094 133.828125 156.035156 133.476562 154.53125 132.988281 C 154.277344 132.910156 154.0625 132.832031 153.652344 132.675781 C 152.773438 132.402344 151.914062 132.109375 150.9375 131.738281 L 149.550781 131.210938 C 148.75 130.898438 147.949219 130.585938 146.972656 130.15625 L 146.328125 129.863281 C 145.136719 129.355469 143.984375 128.789062 142.949219 128.28125 L 140.097656 126.796875 C 139.453125 126.484375 138.886719 126.132812 138.007812 125.605469 L 137.519531 125.332031 L 137.03125 125.039062 C 136.308594 124.609375 135.585938 124.160156 134.921875 123.691406 L 134.453125 123.398438 C 134.414062 123.378906 134.023438 123.105469 133.984375 123.066406 C 133.398438 122.695312 132.832031 122.324219 132.285156 121.972656 C 131.074219 121.113281 129.882812 120.214844 128.496094 119.121094 L 127.949219 118.671875 C 115.058594 108.378906 105.527344 94.628906 101.054688 79.882812 C 96.894531 66.347656 99.980469 48.632812 109.316406 32.5 C 110.527344 30.410156 110.078125 27.753906 108.222656 26.191406 C 107.304688 25.410156 106.171875 25 105.039062 25 Z M 50.019531 40 C 48.828125 40 47.617188 40.429688 46.660156 41.289062 C 37.109375 49.863281 29.960938 60.976562 29.179688 62.246094 C 8.75 91.992188 12.695312 138.222656 26.71875 166.484375 C 26.992188 167.070312 27.285156 167.636719 27.578125 168.203125 L 27.773438 168.515625 C 28.027344 169.082031 28.320312 169.667969 28.417969 169.785156 C 28.574219 170.15625 28.808594 170.566406 28.90625 170.683594 C 29.140625 171.171875 29.375 171.601562 29.804688 172.34375 L 31.40625 175.097656 C 31.640625 175.46875 31.875 175.859375 31.953125 175.996094 C 32.265625 176.503906 32.597656 177.03125 32.929688 177.558594 L 33.710938 178.808594 C 33.945312 179.179688 34.179688 179.511719 34.335938 179.707031 C 35.117188 180.917969 35.898438 182.128906 36.757812 183.28125 C 36.796875 183.339844 36.835938 183.378906 36.875 183.417969 L 37.1875 183.847656 C 37.890625 184.863281 38.613281 185.839844 39.257812 186.640625 L 42.109375 190.253906 C 42.148438 190.292969 42.460938 190.664062 42.480469 190.703125 L 42.890625 191.171875 C 43.75 192.226562 44.667969 193.28125 45.585938 194.296875 C 45.722656 194.453125 45.859375 194.589844 45.996094 194.746094 C 46.875 195.703125 47.773438 196.660156 48.710938 197.65625 L 49.609375 198.515625 C 50.351562 199.296875 51.09375 200.058594 51.875 200.78125 C 51.875 200.800781 52.246094 201.152344 52.246094 201.152344 L 53.027344 201.875 C 53.964844 202.773438 54.941406 203.671875 55.683594 204.296875 C 55.722656 204.355469 56.425781 204.960938 56.484375 205 C 57.402344 205.820312 58.320312 206.601562 59.257812 207.363281 L 64.042969 211.152344 C 64.84375 211.738281 65.664062 212.324219 66.601562 213.007812 C 66.914062 213.242188 67.246094 213.476562 67.578125 213.691406 C 67.714844 213.808594 67.871094 213.925781 67.96875 213.984375 L 71.5625 216.386719 C 72.871094 217.246094 74.179688 218.046875 75.78125 219.003906 L 76.640625 219.492188 C 77.636719 220.078125 78.652344 220.664062 79.609375 221.171875 C 80.175781 221.484375 80.742188 221.757812 81.230469 222.011719 C 81.914062 222.382812 82.65625 222.792969 83.789062 223.339844 C 83.886719 223.398438 84.6875 223.789062 84.785156 223.828125 C 85.917969 224.394531 87.070312 224.921875 88.515625 225.566406 C 88.515625 225.585938 88.984375 225.800781 88.984375 225.800781 C 90.3125 226.367188 91.601562 226.914062 93.300781 227.597656 C 93.574219 227.714844 93.847656 227.8125 93.90625 227.832031 C 95.117188 228.300781 96.386719 228.769531 97.421875 229.140625 C 97.519531 229.179688 98.046875 229.394531 98.144531 229.433594 C 99.53125 229.902344 100.898438 230.351562 102.65625 230.898438 C 102.949219 230.996094 103.261719 231.09375 103.300781 231.09375 L 104.296875 231.40625 C 105.507812 231.777344 106.71875 232.167969 108.027344 232.421875 C 117.324219 234.121094 126.40625 235 135 235 L 135.019531 235 C 206.640625 235 229.453125 177.363281 229.6875 176.777344 C 230.566406 174.453125 229.609375 171.835938 227.421875 170.625 C 225.273438 169.433594 222.539062 170 221.015625 171.972656 C 202.636719 196.171875 167.96875 205.15625 128.28125 196.035156 C 127.324219 195.800781 126.347656 195.527344 125.390625 195.234375 L 123.515625 194.667969 C 122.246094 194.277344 120.976562 193.847656 119.746094 193.417969 C 119.726562 193.417969 119.160156 193.203125 119.160156 193.203125 C 118.066406 192.832031 116.972656 192.402344 116.015625 192.03125 L 114.921875 191.601562 C 113.710938 191.113281 112.5 190.605469 111.328125 190.078125 L 110.644531 189.785156 C 109.589844 189.296875 108.574219 188.828125 107.558594 188.320312 C 107.480469 188.28125 106.679688 187.890625 106.601562 187.871094 C 105.898438 187.519531 105.195312 187.148438 104.296875 186.660156 L 100.214844 184.472656 C 99.804688 184.199219 99.375 183.945312 98.964844 183.730469 C 97.734375 182.96875 96.464844 182.207031 95.214844 181.40625 C 94.921875 181.230469 94.667969 181.035156 94.179688 180.703125 C 93.320312 180.15625 92.480469 179.589844 91.25 178.730469 L 90.761719 178.378906 C 89.921875 177.792969 89.101562 177.167969 88.417969 176.660156 C 87.988281 176.347656 87.558594 175.996094 86.855469 175.46875 C 86.230469 174.980469 85.605469 174.511719 85.019531 174.042969 L 83.925781 173.144531 C 83.007812 172.402344 82.148438 171.621094 81.25 170.859375 C 81.132812 170.742188 81.035156 170.664062 80.898438 170.566406 C 79.902344 169.648438 78.886719 168.730469 77.675781 167.578125 L 74.140625 164.0625 C 73.28125 163.183594 72.421875 162.285156 71.445312 161.210938 C 70.546875 160.214844 69.6875 159.21875 68.535156 157.851562 L 66.425781 155.273438 C 66.171875 154.902344 65.898438 154.53125 65.566406 154.140625 C 64.84375 153.164062 64.121094 152.207031 63.398438 151.191406 C 43.945312 124.394531 38.867188 68.457031 54.023438 47.96875 C 55.546875 45.917969 55.273438 43.027344 53.359375 41.289062 C 52.421875 40.429688 51.210938 40 50.019531 40 Z M 50.019531 40 "/>
</g>
</svg>
