<?xml version="1.0" standalone="no"?>
<!DOCTYPE svg PUBLIC "-//W3C//DTD SVG 20010904//EN"
 "http://www.w3.org/TR/2001/REC-SVG-20010904/DTD/svg10.dtd">
<svg version="1.0" xmlns="http://www.w3.org/2000/svg"
 width="96.000000pt" height="96.000000pt" viewBox="0 0 96.000000 96.000000"
 preserveAspectRatio="xMidYMid meet">

<g transform="translate(0.000000,96.000000) scale(0.100000,-0.100000)"
fill="#000000" stroke="none">
<path d="M240 671 c0 -4 -12 -6 -27 -4 -19 3 -43 -6 -74 -25 -119 -77 -118
-250 3 -325 85 -53 194 -31 299 62 l44 38 50 -44 c94 -82 188 -106 269 -68
143 68 143 282 0 350 -79 37 -162 16 -274 -70 l-55 -43 -49 45 c-27 24 -61 51
-77 58 -34 18 -109 35 -109 26z m29 -71 c23 0 99 -50 135 -89 l30 -31 -40 -41
c-95 -98 -214 -107 -260 -18 -18 36 -18 82 1 119 15 30 61 60 90 60 8 0 15 6
16 13 0 10 2 10 6 0 2 -7 12 -13 22 -13z m537 -34 c30 -30 34 -40 34 -86 0
-46 -4 -56 -34 -86 -29 -29 -41 -34 -80 -34 -56 0 -93 18 -152 72 l-43 40 25
34 c43 56 110 94 167 94 42 0 54 -5 83 -34z"/>
</g>
</svg>
