<?xml version="1.0"?>
<svg xmlns="http://www.w3.org/2000/svg" xmlns:xlink="http://www.w3.org/1999/xlink" xmlns:svgjs="http://svgjs.com/svgjs" version="1.1" width="512" height="512" x="0" y="0" viewBox="0 0 512 512" style="enable-background:new 0 0 512 512" xml:space="preserve" class=""><g>
<path xmlns="http://www.w3.org/2000/svg" d="M315.998,260c-5.52,0-10,4.48-10,10s4.48,10,10,10s10-4.48,10-10S321.518,260,315.998,260z" fill="#b6c2ce" data-original="#000000" style="" class=""/>
<path xmlns="http://www.w3.org/2000/svg" d="M2.492,236.598c0.027,0.031,0.051,0.066,0.079,0.096c0.004,0.004,0.007,0.009,0.011,0.014l246,272  c1.833,2.027,4.611,3.292,7.417,3.292c2.797,0,5.57-1.251,7.417-3.292l246-272c0.004-0.004,0.007-0.009,0.011-0.014  c0.028-0.031,0.051-0.065,0.079-0.096c3.205-3.646,3.289-9.001,0.38-12.732c-0.028-0.036-0.049-0.077-0.078-0.113l-80-100  c-1.897-2.372-4.771-3.753-7.809-3.753c-40.767,0-298.829,0-332,0c-3.038,0-5.911,1.381-7.809,3.753l-80,100  c-0.029,0.036-0.049,0.076-0.078,0.113C-0.827,227.636-0.677,232.993,2.492,236.598z M201.66,140h108.677l48,80H153.66L201.66,140z   M151.34,240h209.316L255.998,477.226L151.34,240z M382.517,240h96.955L290.179,449.298L382.517,240z M129.48,240l92.337,209.298  L32.525,240H129.48z M481.192,220H381.66l-48-80h83.532L481.192,220z M94.804,140h83.532l-48,80H30.804L94.804,140z" fill="#b6c2ce" data-original="#000000" style="" class=""/>
<path xmlns="http://www.w3.org/2000/svg" d="M275.998,260h-74.22c-5.523,0-10,4.477-10,10s4.477,10,10,10h74.22c5.523,0,10-4.477,10-10S281.521,260,275.998,260z" fill="#b6c2ce" data-original="#000000" style="" class=""/>
<path xmlns="http://www.w3.org/2000/svg" d="M255.998,80c5.523,0,10-4.477,10-10V10c0-5.523-4.477-10-10-10c-5.523,0-10,4.477-10,10v60  C245.998,75.523,250.475,80,255.998,80z" fill="#b6c2ce" data-original="#000000" style="" class=""/>
<path xmlns="http://www.w3.org/2000/svg" d="M323.07,77.071l40-40c3.905-3.905,3.905-10.237,0-14.143s-10.237-3.905-14.143,0l-40,40c-3.905,3.905-3.905,10.237,0,14.143  C312.832,80.976,319.164,80.977,323.07,77.071z" fill="#b6c2ce" data-original="#000000" style="" class=""/>
<path xmlns="http://www.w3.org/2000/svg" d="M188.927,77.071c3.905,3.905,10.237,3.905,14.143,0c3.905-3.905,3.905-10.237,0-14.143l-40-40  c-3.905-3.905-10.237-3.905-14.143,0s-3.905,10.237,0,14.143L188.927,77.071z" fill="#b6c2ce" data-original="#000000" style="" class=""/>
<g xmlns="http://www.w3.org/2000/svg">
</g>
<g xmlns="http://www.w3.org/2000/svg">
</g>
<g xmlns="http://www.w3.org/2000/svg">
</g>
<g xmlns="http://www.w3.org/2000/svg">
</g>
<g xmlns="http://www.w3.org/2000/svg">
</g>
<g xmlns="http://www.w3.org/2000/svg">
</g>
<g xmlns="http://www.w3.org/2000/svg">
</g>
<g xmlns="http://www.w3.org/2000/svg">
</g>
<g xmlns="http://www.w3.org/2000/svg">
</g>
<g xmlns="http://www.w3.org/2000/svg">
</g>
<g xmlns="http://www.w3.org/2000/svg">
</g>
<g xmlns="http://www.w3.org/2000/svg">
</g>
<g xmlns="http://www.w3.org/2000/svg">
</g>
<g xmlns="http://www.w3.org/2000/svg">
</g>
<g xmlns="http://www.w3.org/2000/svg">
</g>
</g></svg>
