<?xml version="1.0"?>
<svg xmlns="http://www.w3.org/2000/svg" xmlns:xlink="http://www.w3.org/1999/xlink" xmlns:svgjs="http://svgjs.com/svgjs" version="1.1" width="512" height="512" x="0" y="0" viewBox="0 0 64 64" style="enable-background:new 0 0 512 512" xml:space="preserve" class=""><g><g xmlns="http://www.w3.org/2000/svg"><path d="m60.082 5.775c-2.243-2.99-5.813-4.775-9.551-4.775-3.189 0-6.187 1.242-8.441 3.497l-.09.089-.089-.089c-2.255-2.255-5.253-3.497-8.442-3.497-2.899 0-5.712 1.078-7.878 2.978-.7-.601-1.598-.978-2.591-.978-.829 0-1.6.254-2.239.688-.547-1.56-2.017-2.688-3.761-2.688-1.2 0-2.266.542-3 1.382-.734-.84-1.8-1.382-3-1.382-2.206 0-4 1.794-4 4v2c-3.309 0-6 2.691-6 6v11.78c0 1.67.599 3.288 1.685 4.556l4.315 5.034v28.63h20v-28.616c1.416-1.501 2.477-3.248 3.148-5.146l11.852 10.075 15.777-13.411c3.319-2.821 5.223-6.938 5.223-11.371 0-3.136-1.037-6.246-2.918-8.756zm-31.082 1.225c1.103 0 2 .897 2 2v8c0 1.103-.897 2-2 2s-2-.897-2-2v-8c0-1.103.897-2 2-2zm-6-2c1.103 0 2 .897 2 2v10c0 1.103-.897 2-2 2s-2-.897-2-2v-10c0-1.103.897-2 2-2zm-10.247 12.942c-.432-.834-.964-1.616-1.596-2.318l1.843-.335v1.711c0 .337-.093.656-.247.942zm2.247-3.017 2.227-.405c.658-.119 1.251-.388 1.773-.747v3.227c0 1.103-.897 2-2 2s-2-.897-2-2zm2-11.925c1.103 0 2 .897 2 2v2.184c-.314-.112-.648-.184-1-.184h-3v-2c0-1.103.897-2 2-2zm-8 2c0-1.103.897-2 2-2s2 .897 2 2v2h-4zm-6 19.78v-11.78c0-2.206 1.794-4 4-4h11c.551 0 1 .449 1 1 0 1.255-.896 2.329-2.13 2.553l-10.302 1.873 1.832 1.374c2.254 1.691 3.6 4.382 3.6 7.2v2h2v-2c0-1.009-.143-2.005-.412-2.961.151-.128.291-.265.42-.413.733.835 1.796 1.374 2.992 1.374 1.2 0 2.266-.542 3-1.382.734.84 1.8 1.382 3 1.382s2.266-.542 3-1.382c.734.84 1.8 1.382 3 1.382v3.343c0 3.133-1.143 6.084-3.212 8.404-1.293-.631-4.22-1.747-8.788-1.747-4.543 0-7.462 1.103-8.766 1.736l-4.031-4.702c-.776-.905-1.203-2.061-1.203-3.254zm22 36.22h-16v-26.411c1.004-.5 3.687-1.589 8-1.589 4.316 0 6.999 1.09 8 1.589zm31.482-36.622-14.482 12.31-11.265-9.574c.172-.905.265-1.83.265-2.771v-3.9c1.19-.694 2-1.97 2-3.444v-7.999c0-2.206-1.794-4-4-4-.829 0-1.6.254-2.239.688-.006-.017-.01-.034-.016-.051 1.824-1.678 4.235-2.637 6.724-2.637 2.655 0 5.15 1.034 7.027 2.911l1.504 1.503 1.503-1.503c1.877-1.877 4.373-2.911 7.028-2.911 3.111 0 6.084 1.486 7.951 3.976 1.623 2.165 2.518 4.848 2.518 7.632 0 3.768-1.647 7.33-4.518 9.77z" fill="#b6c2ce" data-original="#000000" style="" class=""/><path d="m55.282 9.375c.257.343.492.711.696 1.095l1.765-.941c-.253-.474-.542-.929-.861-1.354-1.386-1.847-3.504-2.998-5.813-3.157l-.138 1.995c1.729.12 3.315.981 4.351 2.362z" fill="#b6c2ce" data-original="#000000" style="" class=""/><path d="m58.622 11.735-1.929.529c.203.743.307 1.506.307 2.267 0 2.642-1.133 5.12-3.109 6.8l-1.068.908 1.295 1.523 1.068-.907c2.424-2.061 3.814-5.095 3.814-8.324 0-.94-.127-1.88-.378-2.796z" fill="#b6c2ce" data-original="#000000" style="" class=""/><path d="m25.243 24.97-.485-1.94c-2.826.707-5.021 2.901-5.728 5.728l1.94.485c.528-2.109 2.164-3.745 4.273-4.273z" fill="#b6c2ce" data-original="#000000" style="" class=""/></g></g></svg>
