<?xml version="1.0"?>
<svg xmlns="http://www.w3.org/2000/svg" xmlns:xlink="http://www.w3.org/1999/xlink" xmlns:svgjs="http://svgjs.com/svgjs" version="1.1" width="512" height="512" x="0" y="0" viewBox="0 0 512 512" style="enable-background:new 0 0 512 512" xml:space="preserve" class=""><g><g xmlns="http://www.w3.org/2000/svg" id="_11-call_center_support" data-name="11-call center support"><g id="linear_color" data-name="linear color"><path d="M364,181.222V150.58a12,12,0,0,0-10.529-11.91l-25.36-3.132-7.939-19.171,15.711-20.148a12,12,0,0,0-.978-15.865L287.646,33.1a12,12,0,0,0-15.865-.978L251.633,47.828l-19.171-7.939-3.132-25.36A12,12,0,0,0,217.42,4H150.58a12,12,0,0,0-11.91,10.529l-3.132,25.36-19.171,7.939L96.219,32.117a12,12,0,0,0-15.865.978L33.1,80.354a12,12,0,0,0-.978,15.865l15.711,20.148-7.939,19.171-25.36,3.132A12,12,0,0,0,4,150.58v66.84a12,12,0,0,0,10.529,11.91l25.36,3.132,7.939,19.171L32.117,271.781a12,12,0,0,0,.978,15.865l47.259,47.259a12,12,0,0,0,15.865.978l20.148-15.711,19.171,7.939,3.132,25.36A12,12,0,0,0,150.58,364h30.642c9.9,81.031,79.118,144,162.778,144,90.43,0,164-73.57,164-164C508,260.34,445.031,191.118,364,181.222ZM158.5,318.229a12.005,12.005,0,0,0-7.318-9.616l-32.09-13.29a12,12,0,0,0-11.971,1.624l-17.3,13.488-32.26-32.26,13.488-17.3a12,12,0,0,0,1.624-11.971l-13.29-32.09a12.005,12.005,0,0,0-9.616-7.318L28,206.811V161.189L49.771,158.5a12.005,12.005,0,0,0,9.616-7.318l13.29-32.09a12,12,0,0,0-1.624-11.971l-13.488-17.3,32.26-32.26,17.3,13.488a12,12,0,0,0,11.971,1.624l32.09-13.29a12.005,12.005,0,0,0,7.318-9.616L161.189,28h45.622L209.5,49.771a12.005,12.005,0,0,0,7.318,9.616l32.09,13.29a12,12,0,0,0,11.971-1.624l17.3-13.488,32.26,32.26-13.488,17.3a12,12,0,0,0-1.624,11.971l13.29,32.09a12.005,12.005,0,0,0,9.616,7.318L340,161.189v18.862a162.9,162.9,0,0,0-65.575,15.462,91.426,91.426,0,0,0-.085-24,91.3,91.3,0,1,0-90.484,103.674,92.2,92.2,0,0,0,11.651-.745A162.9,162.9,0,0,0,180.051,340H161.189Zm55.505-74.092a67.592,67.592,0,0,1-77.52-12.622,67.2,67.2,0,1,1,95.03-95.03,67.6,67.6,0,0,1,12.622,77.52A165.433,165.433,0,0,0,214.005,244.137ZM344,484c-77.2,0-140-62.8-140-140s62.8-140,140-140,140,62.8,140,140S421.2,484,344,484Z" fill="#b6c2ce" data-original="#000000" style="" class=""/><path d="M440,316H420V304a76,76,0,0,0-152,0v12H248a20.023,20.023,0,0,0-20,20v42a18.021,18.021,0,0,0,18,18h22v4a36.04,36.04,0,0,0,36,36h56a12,12,0,0,0,0-24H304a12.013,12.013,0,0,1-12-12V304a52,52,0,0,1,104,0v80a12,12,0,0,0,12,12h34a18.021,18.021,0,0,0,18-18V336A20.023,20.023,0,0,0,440,316ZM252,340h16v32H252Zm184,32H420V340h16Z" fill="#b6c2ce" data-original="#000000" style="" class=""/></g></g></g></svg>
