<?xml version="1.0"?>
<svg xmlns="http://www.w3.org/2000/svg" xmlns:xlink="http://www.w3.org/1999/xlink" xmlns:svgjs="http://svgjs.com/svgjs" version="1.1" width="512" height="512" x="0" y="0" viewBox="0 0 512 512" style="enable-background:new 0 0 512 512" xml:space="preserve"><g><g xmlns="http://www.w3.org/2000/svg"><path d="m256 134.013c-67.264 0-121.987 54.724-121.987 121.987s54.723 121.987 121.987 121.987 121.987-54.723 121.987-121.987-54.723-121.987-121.987-121.987zm101.097 108.484c-12.009 3.22-33.283 6.815-43.731-4.168-2.58-2.716-4.795-5.532-6.937-8.256-6.031-7.668-12.866-16.359-26.151-18.354-11.756-1.764-20.366 3.576-26.655 7.473-2.767 1.716-6.206 3.84-7.462 3.526-26.559-6.884-24.64-28.204-19.712-53.283.906-4.613 1.643-8.362 1.883-11.608 8.802-2.484 18.082-3.813 27.668-3.813 51.659-.001 94.47 38.606 101.097 88.483zm-150.513-75.693c-2.125 10.85-4.761 25.303-1.942 39.164 3.744 18.404 16.365 30.891 36.504 36.11 9.534 2.47 17.006-2.165 23.012-5.886 5.37-3.329 8.878-5.339 13.153-4.694 5.216.782 7.876 3.919 13.396 10.939 2.313 2.94 4.934 6.273 8.163 9.672 9.856 10.359 23.417 13.565 36.432 13.565 8.024-.001 15.84-1.22 22.45-2.733-.854 12.645-4.023 24.666-9.086 35.64-6.666-5.044-14.778-11.041-19.065-13.677-14.382-8.841-27.96-11.36-40.357-7.484-19.418 6.069-30.179 26.166-36.585 40.756-7.215 16.436-20.58 25.434-33.948 32.709-.016.008-.031.018-.047.026-7.496-2.959-14.56-6.782-21.07-11.345.642-.366 1.284-.731 1.923-1.094 11.857-6.729 25.297-14.358 25.107-29.29-.097-7.612-5.039-13.645-10.27-20.031-4.447-5.43-9.488-11.583-11.477-18.696-2.08-7.439-3.196-16.07-3.317-25.653-.248-19.714-9.974-37.662-25.965-48.832 8.73-11.949 19.992-21.937 32.989-29.166zm-52.571 89.196c0-15.244 3.362-29.718 9.384-42.719 9.98 7.549 16.008 19.127 16.168 31.773.143 11.318 1.507 21.677 4.054 30.786 3.118 11.155 9.854 19.378 15.266 25.985 2.182 2.663 5.138 6.271 5.728 7.861-.417 3.136-9.141 8.087-14.966 11.393-2.649 1.504-5.345 3.034-7.983 4.676-17.14-18.253-27.651-42.8-27.651-69.755zm101.987 101.987c-3.454 0-6.868-.173-10.235-.51 9.127-6.938 18.902-16.899 25.208-31.262 4.834-11.012 12.607-26.071 24.239-29.707 6.632-2.072 14.679-.244 23.917 5.434 3.709 2.281 12.144 8.54 19.335 14.005-18.562 25.463-48.613 42.04-82.464 42.04z" fill="#b6c2ce" data-original="#000000" style=""/><path d="m510.159 250.218c-1.152-1.626-28.738-40.273-73.635-79.455-26.495-23.123-53.523-41.576-80.333-54.848-33.939-16.802-67.648-25.32-100.19-25.32s-66.251 8.519-100.19 25.32c-26.81 13.272-53.838 31.725-80.333 54.848-44.898 39.182-72.484 77.829-73.637 79.455-2.455 3.464-2.455 8.101 0 11.564 1.152 1.626 28.738 40.272 73.635 79.455 26.495 23.123 53.523 41.576 80.333 54.848 33.939 16.802 67.648 25.32 100.19 25.32s66.251-8.519 100.19-25.32c26.81-13.272 53.838-31.725 80.333-54.848 44.897-39.183 72.483-77.829 73.635-79.455 2.457-3.464 2.457-8.1.002-11.564zm-86.786 75.95c-39.329 34.323-100.29 75.237-167.373 75.237-66.943 0-127.786-40.755-167.038-74.944-33.289-28.995-57.152-58.345-66.476-70.464 9.277-12.068 32.959-41.207 66.141-70.165 39.329-34.323 100.29-75.237 167.373-75.237 66.943 0 127.786 40.755 167.038 74.944 33.289 28.995 57.151 58.343 66.476 70.464-9.278 12.068-32.96 41.207-66.141 70.165z" fill="#b6c2ce" data-original="#000000" style=""/><path d="m256 69.206c5.523 0 10-4.478 10-10v-15.315c0-5.522-4.477-10-10-10s-10 4.478-10 10v15.316c0 5.522 4.477 9.999 10 9.999z" fill="#b6c2ce" data-original="#000000" style=""/><path d="m108.036 110.354c1.953 1.952 4.512 2.929 7.071 2.929s5.119-.977 7.071-2.929c3.905-3.905 3.905-10.237 0-14.143l-10.83-10.83c-3.905-3.904-10.237-3.904-14.143 0-3.905 3.905-3.905 10.237 0 14.143z" fill="#b6c2ce" data-original="#000000" style=""/><path d="m396.893 113.282c2.559 0 5.119-.977 7.071-2.929l10.83-10.83c3.905-3.905 3.905-10.237 0-14.143-3.905-3.904-10.237-3.904-14.142 0l-10.83 10.83c-3.905 3.905-3.905 10.237 0 14.143 1.952 1.953 4.512 2.929 7.071 2.929z" fill="#b6c2ce" data-original="#000000" style=""/><path d="m256 442.794c-5.523 0-10 4.478-10 10v15.315c0 5.522 4.477 10 10 10s10-4.478 10-10v-15.315c0-5.522-4.477-10-10-10z" fill="#b6c2ce" data-original="#000000" style=""/><path d="m403.964 401.647c-3.905-3.904-10.237-3.904-14.143 0-3.905 3.905-3.905 10.237 0 14.143l10.83 10.83c1.953 1.952 4.512 2.929 7.071 2.929s5.119-.977 7.071-2.929c3.905-3.905 3.905-10.237 0-14.142z" fill="#b6c2ce" data-original="#000000" style=""/><path d="m108.036 401.647-10.83 10.83c-3.905 3.905-3.905 10.237 0 14.142 1.953 1.952 4.512 2.929 7.071 2.929s5.119-.977 7.071-2.929l10.83-10.83c3.905-3.905 3.905-10.237 0-14.143-3.905-3.904-10.237-3.904-14.142.001z" fill="#b6c2ce" data-original="#000000" style=""/></g></g></svg>
